REM MD5 3b20a14320c070c5896fb196e2dbb946
FILE "DemoDemo PlayStation Special (Japan).bin" BINARY
  TRACK 01 MODE2/2352
    INDEX 01 00:00:00
  TRACK 02 AUDIO
    INDEX 00 68:37:40
    INDEX 01 68:39:40
  TRACK 03 AUDIO
    INDEX 00 70:23:49
    INDEX 01 70:25:49
REM LEADOUT 70:49:33
